<svg xmlns="http://www.w3.org/2000/svg" width="1200" height="360" viewBox="0 0 1200 360" role="img" aria-label="ContainerTrack">
  <defs>
    <linearGradient id="bg" x1="0" y1="0" x2="1" y2="1">
      <stop offset="0%" stop-color="#F7FAF9"/>
      <stop offset="100%" stop-color="#EAF4F1"/>
    </linearGradient>
    <filter id="shadow" x="-20%" y="-20%" width="140%" height="140%">
      <feDropShadow dx="0" dy="10" stdDeviation="18" flood-color="#081F28" flood-opacity="0.12"/>
    </filter>
  </defs>

  <rect width="1200" height="360" rx="28" fill="url(#bg)"/>
  <rect x="46" y="42" width="1108" height="276" rx="24" fill="#FFFFFF" filter="url(#shadow)"/>
  <rect x="46" y="42" width="8" height="276" rx="4" fill="#009B84"/>

  <rect x="90" y="92" width="82" height="82" rx="22" fill="#009B84"/>
  <text x="131" y="143" text-anchor="middle" fill="#FFFFFF" font-family="Arial, Helvetica, sans-serif" font-weight="800" font-size="28">CT</text>

  <text x="205" y="125" fill="#081A25" font-family="Arial, Helvetica, sans-serif" font-weight="800" font-size="48">ContainerTrack</text>
  <text x="205" y="166" fill="#687780" font-family="Arial, Helvetica, sans-serif" font-weight="500" font-size="22">
    Geführte Container-Fotodokumentation · Local-first PWA
  </text>

  <rect x="205" y="202" width="190" height="46" rx="14" fill="#EAF8F4"/>
  <text x="300" y="231" text-anchor="middle" fill="#007D6D" font-family="Arial, Helvetica, sans-serif" font-weight="700" font-size="18">
    LIVE SCAN
  </text>

  <rect x="410" y="202" width="190" height="46" rx="14" fill="#F2F5F4"/>
  <text x="505" y="231" text-anchor="middle" fill="#18313B" font-family="Arial, Helvetica, sans-serif" font-weight="700" font-size="18">
    FOTO 1 → 6
  </text>

  <rect x="615" y="202" width="190" height="46" rx="14" fill="#EAF8F4"/>
  <text x="710" y="231" text-anchor="middle" fill="#007D6D" font-family="Arial, Helvetica, sans-serif" font-weight="700" font-size="18">
    LOCAL-ONLY
  </text>

  <rect x="820" y="202" width="190" height="46" rx="14" fill="#F2F5F4"/>
  <text x="915" y="231" text-anchor="middle" fill="#18313B" font-family="Arial, Helvetica, sans-serif" font-weight="700" font-size="18">
    INSTALLIERBARE PWA
  </text>

  <text x="90" y="286" fill="#8A979D" font-family="Arial, Helvetica, sans-serif" font-weight="500" font-size="16">
    V10 Speed · GitHub Pages hostet nur die App · Containerdaten und Fotos bleiben auf dem Gerät
  </text>
</svg>
